<svg id="visual" viewBox="0 0 960 300" width="960" height="300" xmlns="http://www.w3.org/2000/svg" xmlns:xlink="http://www.w3.org/1999/xlink" version="1.1"><path d="M0 165L20 162C40 159 80 153 120 153.5C160 154 200 161 240 153.8C280 146.7 320 125.3 360 125.7C400 126 440 148 480 152.3C520 156.7 560 143.3 600 133.8C640 124.3 680 118.7 720 123.8C760 129 800 145 840 144.2C880 143.3 920 125.7 940 116.8L960 108L960 0L940 0C920 0 880 0 840 0C800 0 760 0 720 0C680 0 640 0 600 0C560 0 520 0 480 0C440 0 400 0 360 0C320 0 280 0 240 0C200 0 160 0 120 0C80 0 40 0 20 0L0 0Z" fill="#1d1c1c"></path><path d="M0 120L20 127.7C40 135.3 80 150.7 120 158C160 165.3 200 164.7 240 155C280 145.3 320 126.7 360 112.5C400 98.3 440 88.7 480 97C520 105.3 560 131.7 600 131.8C640 132 680 106 720 104C760 102 800 124 840 134C880 144 920 142 940 141L960 140L960 0L940 0C920 0 880 0 840 0C800 0 760 0 720 0C680 0 640 0 600 0C560 0 520 0 480 0C440 0 400 0 360 0C320 0 280 0 240 0C200 0 160 0 120 0C80 0 40 0 20 0L0 0Z" fill="#181717"></path><path d="M0 48L20 61.7C40 75.3 80 102.7 120 115C160 127.3 200 124.7 240 122.3C280 120 320 118 360 106.2C400 94.3 440 72.7 480 72.2C520 71.7 560 92.3 600 104.2C640 116 680 119 720 109.3C760 99.7 800 77.3 840 69.2C880 61 920 67 940 70L960 73L960 0L940 0C920 0 880 0 840 0C800 0 760 0 720 0C680 0 640 0 600 0C560 0 520 0 480 0C440 0 400 0 360 0C320 0 280 0 240 0C200 0 160 0 120 0C80 0 40 0 20 0L0 0Z" fill="#121111"></path><path d="M0 101L20 89C40 77 80 53 120 40.8C160 28.7 200 28.3 240 37C280 45.7 320 63.3 360 65.2C400 67 440 53 480 55C520 57 560 75 600 81.3C640 87.7 680 82.3 720 71.5C760 60.7 800 44.3 840 36.2C880 28 920 28 940 28L960 28L960 0L940 0C920 0 880 0 840 0C800 0 760 0 720 0C680 0 640 0 600 0C560 0 520 0 480 0C440 0 400 0 360 0C320 0 280 0 240 0C200 0 160 0 120 0C80 0 40 0 20 0L0 0Z" fill="#0b0909"></path><path d="M0 59L20 50.8C40 42.7 80 26.3 120 26.2C160 26 200 42 240 50.7C280 59.3 320 60.7 360 52.7C400 44.7 440 27.3 480 22.8C520 18.3 560 26.7 600 26.7C640 26.7 680 18.3 720 13.8C760 9.3 800 8.7 840 12.7C880 16.7 920 25.3 940 29.7L960 34L960 0L940 0C920 0 880 0 840 0C800 0 760 0 720 0C680 0 640 0 600 0C560 0 520 0 480 0C440 0 400 0 360 0C320 0 280 0 240 0C200 0 160 0 120 0C80 0 40 0 20 0L0 0Z" fill="#000000"></path></svg>